<?xml version="1.0" encoding="UTF-8" standalone="no"?>
<!DOCTYPE svg PUBLIC "-//W3C//DTD SVG 1.1//EN"
 "http://www.w3.org/Graphics/SVG/1.1/DTD/svg11.dtd">
<!-- Generated by graphviz version 2.38.0 (20140413.2041)
 -->
<!-- Title: controllers_diagram Pages: 1 -->
<svg width="916pt" height="898pt"
 viewBox="0.00 0.00 916.22 898.00" xmlns="http://www.w3.org/2000/svg" xmlns:xlink="http://www.w3.org/1999/xlink">
<g id="graph0" class="graph" transform="scale(1 1) rotate(0) translate(394.648 486.5)">
<title>controllers_diagram</title>
<polygon fill="white" stroke="none" points="-394.648,411.5 -394.648,-486.5 521.576,-486.5 521.576,411.5 -394.648,411.5"/>
<!-- _diagram_info -->
<g id="node1" class="node"><title>_diagram_info</title>
<text text-anchor="start" x="-281.212" y="229.9" font-family="Times,serif" font-size="13.00">Controllers diagram</text>
<text text-anchor="start" x="-281.212" y="242.9" font-family="Times,serif" font-size="13.00">Date: Nov 15 2014 &#45; 13:47</text>
<text text-anchor="start" x="-281.212" y="255.9" font-family="Times,serif" font-size="13.00">Migration version: 20141112171329</text>
<text text-anchor="start" x="-281.212" y="268.9" font-family="Times,serif" font-size="13.00">Generated by RailRoady 1.2.0</text>
<text text-anchor="start" x="-281.212" y="281.9" font-family="Times,serif" font-size="13.00">http://railroady.prestonlee.com</text>
</g>
<!-- ApplicationController -->
<g id="node2" class="node"><title>ApplicationController</title>
<path fill="none" stroke="black" d="M80.0342,288C80.0342,288 253.966,288 253.966,288 259.966,288 265.966,282 265.966,276 265.966,276 265.966,196 265.966,196 265.966,190 259.966,184 253.966,184 253.966,184 80.0342,184 80.0342,184 74.0342,184 68.0342,190 68.0342,196 68.0342,196 68.0342,276 68.0342,276 68.0342,282 74.0342,288 80.0342,288"/>
<text text-anchor="middle" x="167" y="199.2" font-family="Times,serif" font-size="14.00">ApplicationController</text>
<polyline fill="none" stroke="black" points="68.0342,206 265.966,206 "/>
<polyline fill="none" stroke="black" points="68.0342,230 265.966,230 "/>
<text text-anchor="start" x="76.0342" y="245.2" font-family="Times,serif" font-size="14.00">after_sign_out_path_for</text>
<text text-anchor="start" x="76.0342" y="259.2" font-family="Times,serif" font-size="14.00">configure_permitted_parameters</text>
<polyline fill="none" stroke="black" points="68.0342,266 265.966,266 "/>
<text text-anchor="start" x="76.0342" y="281.2" font-family="Times,serif" font-size="14.00">_layout</text>
</g>
<!-- BidsController -->
<g id="node3" class="node"><title>BidsController</title>
<path fill="none" stroke="black" d="M-310.61,186C-310.61,186 -235.39,186 -235.39,186 -229.39,186 -223.39,180 -223.39,174 -223.39,174 -223.39,52 -223.39,52 -223.39,46 -229.39,40 -235.39,40 -235.39,40 -310.61,40 -310.61,40 -316.61,40 -322.61,46 -322.61,52 -322.61,52 -322.61,174 -322.61,174 -322.61,180 -316.61,186 -310.61,186"/>
<text text-anchor="middle" x="-273" y="55.2" font-family="Times,serif" font-size="14.00">BidsController</text>
<polyline fill="none" stroke="black" points="-322.61,62 -223.39,62 "/>
<text text-anchor="start" x="-314.61" y="77.2" font-family="Times,serif" font-size="14.00">create</text>
<text text-anchor="start" x="-314.61" y="91.2" font-family="Times,serif" font-size="14.00">destroy</text>
<text text-anchor="start" x="-314.61" y="105.2" font-family="Times,serif" font-size="14.00">update</text>
<polyline fill="none" stroke="black" points="-322.61,112 -223.39,112 "/>
<polyline fill="none" stroke="black" points="-322.61,136 -223.39,136 "/>
<text text-anchor="start" x="-314.61" y="151.2" font-family="Times,serif" font-size="14.00">_layout</text>
<text text-anchor="start" x="-314.61" y="165.2" font-family="Times,serif" font-size="14.00">bid_params</text>
<text text-anchor="start" x="-314.61" y="179.2" font-family="Times,serif" font-size="14.00">set_bid</text>
</g>
<!-- CommentsController -->
<g id="node4" class="node"><title>CommentsController</title>
<path fill="none" stroke="black" d="M249.893,-239C249.893,-239 360.107,-239 360.107,-239 366.107,-239 372.107,-245 372.107,-251 372.107,-251 372.107,-429 372.107,-429 372.107,-435 366.107,-441 360.107,-441 360.107,-441 249.893,-441 249.893,-441 243.893,-441 237.893,-435 237.893,-429 237.893,-429 237.893,-251 237.893,-251 237.893,-245 243.893,-239 249.893,-239"/>
<text text-anchor="middle" x="305" y="-425.8" font-family="Times,serif" font-size="14.00">CommentsController</text>
<polyline fill="none" stroke="black" points="237.893,-419 372.107,-419 "/>
<text text-anchor="start" x="245.893" y="-403.8" font-family="Times,serif" font-size="14.00">create</text>
<text text-anchor="start" x="245.893" y="-389.8" font-family="Times,serif" font-size="14.00">destroy</text>
<text text-anchor="start" x="245.893" y="-375.8" font-family="Times,serif" font-size="14.00">edit</text>
<text text-anchor="start" x="245.893" y="-361.8" font-family="Times,serif" font-size="14.00">new</text>
<text text-anchor="start" x="245.893" y="-347.8" font-family="Times,serif" font-size="14.00">update</text>
<polyline fill="none" stroke="black" points="237.893,-341 372.107,-341 "/>
<polyline fill="none" stroke="black" points="237.893,-317 372.107,-317 "/>
<text text-anchor="start" x="245.893" y="-301.8" font-family="Times,serif" font-size="14.00">_layout</text>
<text text-anchor="start" x="245.893" y="-287.8" font-family="Times,serif" font-size="14.00">comment_params</text>
<text text-anchor="start" x="245.893" y="-273.8" font-family="Times,serif" font-size="14.00">commentable_id</text>
<text text-anchor="start" x="245.893" y="-259.8" font-family="Times,serif" font-size="14.00">get_commentable</text>
<text text-anchor="start" x="245.893" y="-245.8" font-family="Times,serif" font-size="14.00">get_commenterable</text>
</g>
<!-- ContactsController -->
<g id="node5" class="node"><title>ContactsController</title>
<path fill="none" stroke="black" d="M-39.269,-324C-39.269,-324 59.269,-324 59.269,-324 65.269,-324 71.269,-330 71.269,-336 71.269,-336 71.269,-430 71.269,-430 71.269,-436 65.269,-442 59.269,-442 59.269,-442 -39.269,-442 -39.269,-442 -45.269,-442 -51.269,-436 -51.269,-430 -51.269,-430 -51.269,-336 -51.269,-336 -51.269,-330 -45.269,-324 -39.269,-324"/>
<text text-anchor="middle" x="10" y="-426.8" font-family="Times,serif" font-size="14.00">ContactsController</text>
<polyline fill="none" stroke="black" points="-51.269,-420 71.269,-420 "/>
<text text-anchor="start" x="-43.269" y="-404.8" font-family="Times,serif" font-size="14.00">create</text>
<text text-anchor="start" x="-43.269" y="-390.8" font-family="Times,serif" font-size="14.00">new</text>
<polyline fill="none" stroke="black" points="-51.269,-384 71.269,-384 "/>
<polyline fill="none" stroke="black" points="-51.269,-360 71.269,-360 "/>
<text text-anchor="start" x="-43.269" y="-344.8" font-family="Times,serif" font-size="14.00">_layout</text>
<text text-anchor="start" x="-43.269" y="-330.8" font-family="Times,serif" font-size="14.00">contact_params</text>
</g>
<!-- Contractors::OmniauthCallbacksController -->
<g id="node6" class="node"><title>Contractors::OmniauthCallbacksController</title>
<path fill="none" stroke="black" d="M-123.921,50C-123.921,50 109.921,50 109.921,50 115.921,50 121.921,44 121.921,38 121.921,38 121.921,-30 121.921,-30 121.921,-36 115.921,-42 109.921,-42 109.921,-42 -123.921,-42 -123.921,-42 -129.921,-42 -135.921,-36 -135.921,-30 -135.921,-30 -135.921,38 -135.921,38 -135.921,44 -129.921,50 -123.921,50"/>
<text text-anchor="middle" x="-7" y="-26.8" font-family="Times,serif" font-size="14.00">Contractors::OmniauthCallbacksController</text>
<polyline fill="none" stroke="black" points="-135.921,-20 121.921,-20 "/>
<polyline fill="none" stroke="black" points="-135.921,4 121.921,4 "/>
<polyline fill="none" stroke="black" points="-135.921,28 121.921,28 "/>
<text text-anchor="start" x="-127.921" y="43.2" font-family="Times,serif" font-size="14.00">_layout</text>
</g>
<!-- Contractors::RegistrationsController -->
<g id="node7" class="node"><title>Contractors::RegistrationsController</title>
<path fill="none" stroke="black" d="M-175.262,186C-175.262,186 21.2622,186 21.2622,186 27.2622,186 33.2622,180 33.2622,174 33.2622,174 33.2622,96 33.2622,96 33.2622,90 27.2622,84 21.2622,84 21.2622,84 -175.262,84 -175.262,84 -181.262,84 -187.262,90 -187.262,96 -187.262,96 -187.262,174 -187.262,174 -187.262,180 -181.262,186 -175.262,186"/>
<text text-anchor="middle" x="-77" y="99.2" font-family="Times,serif" font-size="14.00">Contractors::RegistrationsController</text>
<polyline fill="none" stroke="black" points="-187.262,106 33.2622,106 "/>
<text text-anchor="start" x="-179.262" y="121.2" font-family="Times,serif" font-size="14.00">update</text>
<polyline fill="none" stroke="black" points="-187.262,128 33.2622,128 "/>
<text text-anchor="start" x="-179.262" y="143.2" font-family="Times,serif" font-size="14.00">configure_account_update_params</text>
<text text-anchor="start" x="-179.262" y="157.2" font-family="Times,serif" font-size="14.00">needs_password?</text>
<polyline fill="none" stroke="black" points="-187.262,164 33.2622,164 "/>
<text text-anchor="start" x="-179.262" y="179.2" font-family="Times,serif" font-size="14.00">_layout</text>
</g>
<!-- ContractorsController -->
<g id="node8" class="node"><title>ContractorsController</title>
<path fill="none" stroke="black" d="M-294.431,-1C-294.431,-1 -179.569,-1 -179.569,-1 -173.569,-1 -167.569,-7 -167.569,-13 -167.569,-13 -167.569,-135 -167.569,-135 -167.569,-141 -173.569,-147 -179.569,-147 -179.569,-147 -294.431,-147 -294.431,-147 -300.431,-147 -306.431,-141 -306.431,-135 -306.431,-135 -306.431,-13 -306.431,-13 -306.431,-7 -300.431,-1 -294.431,-1"/>
<text text-anchor="middle" x="-237" y="-131.8" font-family="Times,serif" font-size="14.00">ContractorsController</text>
<polyline fill="none" stroke="black" points="-306.431,-125 -167.569,-125 "/>
<text text-anchor="start" x="-298.431" y="-109.8" font-family="Times,serif" font-size="14.00">destroy</text>
<text text-anchor="start" x="-298.431" y="-95.8" font-family="Times,serif" font-size="14.00">index</text>
<text text-anchor="start" x="-298.431" y="-81.8" font-family="Times,serif" font-size="14.00">show</text>
<polyline fill="none" stroke="black" points="-306.431,-75 -167.569,-75 "/>
<polyline fill="none" stroke="black" points="-306.431,-51 -167.569,-51 "/>
<text text-anchor="start" x="-298.431" y="-35.8" font-family="Times,serif" font-size="14.00">_layout</text>
<text text-anchor="start" x="-298.431" y="-21.8" font-family="Times,serif" font-size="14.00">block_visitors</text>
<text text-anchor="start" x="-298.431" y="-7.8" font-family="Times,serif" font-size="14.00">set_contractor</text>
</g>
<!-- ExamplesController -->
<g id="node9" class="node"><title>ExamplesController</title>
<path fill="none" stroke="black" d="M-90.376,-103C-90.376,-103 14.376,-103 14.376,-103 20.376,-103 26.376,-109 26.376,-115 26.376,-115 26.376,-279 26.376,-279 26.376,-285 20.376,-291 14.376,-291 14.376,-291 -90.376,-291 -90.376,-291 -96.376,-291 -102.376,-285 -102.376,-279 -102.376,-279 -102.376,-115 -102.376,-115 -102.376,-109 -96.376,-103 -90.376,-103"/>
<text text-anchor="middle" x="-38" y="-275.8" font-family="Times,serif" font-size="14.00">ExamplesController</text>
<polyline fill="none" stroke="black" points="-102.376,-269 26.376,-269 "/>
<text text-anchor="start" x="-94.376" y="-253.8" font-family="Times,serif" font-size="14.00">create</text>
<text text-anchor="start" x="-94.376" y="-239.8" font-family="Times,serif" font-size="14.00">destroy</text>
<text text-anchor="start" x="-94.376" y="-225.8" font-family="Times,serif" font-size="14.00">edit</text>
<text text-anchor="start" x="-94.376" y="-211.8" font-family="Times,serif" font-size="14.00">new</text>
<text text-anchor="start" x="-94.376" y="-197.8" font-family="Times,serif" font-size="14.00">show</text>
<text text-anchor="start" x="-94.376" y="-183.8" font-family="Times,serif" font-size="14.00">update</text>
<polyline fill="none" stroke="black" points="-102.376,-177 26.376,-177 "/>
<polyline fill="none" stroke="black" points="-102.376,-153 26.376,-153 "/>
<text text-anchor="start" x="-94.376" y="-137.8" font-family="Times,serif" font-size="14.00">_layout</text>
<text text-anchor="start" x="-94.376" y="-123.8" font-family="Times,serif" font-size="14.00">example_params</text>
<text text-anchor="start" x="-94.376" y="-109.8" font-family="Times,serif" font-size="14.00">set_example</text>
</g>
<!-- JobsController -->
<g id="node10" class="node"><title>JobsController</title>
<path fill="none" stroke="black" d="M113.779,-239C113.779,-239 188.221,-239 188.221,-239 194.221,-239 200.221,-245 200.221,-251 200.221,-251 200.221,-457 200.221,-457 200.221,-463 194.221,-469 188.221,-469 188.221,-469 113.779,-469 113.779,-469 107.779,-469 101.779,-463 101.779,-457 101.779,-457 101.779,-251 101.779,-251 101.779,-245 107.779,-239 113.779,-239"/>
<text text-anchor="middle" x="151" y="-453.8" font-family="Times,serif" font-size="14.00">JobsController</text>
<polyline fill="none" stroke="black" points="101.779,-447 200.221,-447 "/>
<text text-anchor="start" x="109.779" y="-431.8" font-family="Times,serif" font-size="14.00">create</text>
<text text-anchor="start" x="109.779" y="-417.8" font-family="Times,serif" font-size="14.00">destroy</text>
<text text-anchor="start" x="109.779" y="-403.8" font-family="Times,serif" font-size="14.00">edit</text>
<text text-anchor="start" x="109.779" y="-389.8" font-family="Times,serif" font-size="14.00">index</text>
<text text-anchor="start" x="109.779" y="-375.8" font-family="Times,serif" font-size="14.00">new</text>
<text text-anchor="start" x="109.779" y="-361.8" font-family="Times,serif" font-size="14.00">show</text>
<text text-anchor="start" x="109.779" y="-347.8" font-family="Times,serif" font-size="14.00">update</text>
<polyline fill="none" stroke="black" points="101.779,-341 200.221,-341 "/>
<polyline fill="none" stroke="black" points="101.779,-317 200.221,-317 "/>
<text text-anchor="start" x="109.779" y="-301.8" font-family="Times,serif" font-size="14.00">_layout</text>
<text text-anchor="start" x="109.779" y="-287.8" font-family="Times,serif" font-size="14.00">block_visitors</text>
<text text-anchor="start" x="109.779" y="-273.8" font-family="Times,serif" font-size="14.00">job_params</text>
<text text-anchor="start" x="109.779" y="-259.8" font-family="Times,serif" font-size="14.00">set_job</text>
<text text-anchor="start" x="109.779" y="-245.8" font-family="Times,serif" font-size="14.00">user_check</text>
</g>
<!-- RegistrationsController -->
<g id="node11" class="node"><title>RegistrationsController</title>
<path fill="none" stroke="black" d="M80.3789,-69C80.3789,-69 263.621,-69 263.621,-69 269.621,-69 275.621,-75 275.621,-81 275.621,-81 275.621,-187 275.621,-187 275.621,-193 269.621,-199 263.621,-199 263.621,-199 80.3789,-199 80.3789,-199 74.3789,-199 68.3789,-193 68.3789,-187 68.3789,-187 68.3789,-81 68.3789,-81 68.3789,-75 74.3789,-69 80.3789,-69"/>
<text text-anchor="middle" x="172" y="-183.8" font-family="Times,serif" font-size="14.00">RegistrationsController</text>
<polyline fill="none" stroke="black" points="68.3789,-177 275.621,-177 "/>
<text text-anchor="start" x="76.3789" y="-161.8" font-family="Times,serif" font-size="14.00">create</text>
<text text-anchor="start" x="76.3789" y="-147.8" font-family="Times,serif" font-size="14.00">edit</text>
<polyline fill="none" stroke="black" points="68.3789,-141 275.621,-141 "/>
<text text-anchor="start" x="76.3789" y="-125.8" font-family="Times,serif" font-size="14.00">after_sign_up_path_for</text>
<text text-anchor="start" x="76.3789" y="-111.8" font-family="Times,serif" font-size="14.00">after_update_path_for</text>
<text text-anchor="start" x="76.3789" y="-97.8" font-family="Times,serif" font-size="14.00">configure_account_create_params</text>
<polyline fill="none" stroke="black" points="68.3789,-91 275.621,-91 "/>
<text text-anchor="start" x="76.3789" y="-75.8" font-family="Times,serif" font-size="14.00">_layout</text>
</g>
<!-- SearchesController -->
<g id="node12" class="node"><title>SearchesController</title>
<path fill="none" stroke="black" d="M-378.648,-392C-378.648,-392 -279.352,-392 -279.352,-392 -273.352,-392 -267.352,-398 -267.352,-404 -267.352,-404 -267.352,-470 -267.352,-470 -267.352,-476 -273.352,-482 -279.352,-482 -279.352,-482 -378.648,-482 -378.648,-482 -384.648,-482 -390.648,-476 -390.648,-470 -390.648,-470 -390.648,-404 -390.648,-404 -390.648,-398 -384.648,-392 -378.648,-392"/>
<text text-anchor="middle" x="-329" y="-466.8" font-family="Times,serif" font-size="14.00">SearchesController</text>
<polyline fill="none" stroke="black" points="-390.648,-460 -267.352,-460 "/>
<text text-anchor="start" x="-382.648" y="-444.8" font-family="Times,serif" font-size="14.00">show</text>
<polyline fill="none" stroke="black" points="-390.648,-438 -267.352,-438 "/>
<polyline fill="none" stroke="black" points="-390.648,-414 -267.352,-414 "/>
<text text-anchor="start" x="-382.648" y="-398.8" font-family="Times,serif" font-size="14.00">_layout</text>
</g>
<!-- SessionsController -->
<g id="node13" class="node"><title>SessionsController</title>
<path fill="none" stroke="black" d="M11.8516,407C11.8516,407 132.148,407 132.148,407 138.148,407 144.148,401 144.148,395 144.148,395 144.148,329 144.148,329 144.148,323 138.148,317 132.148,317 132.148,317 11.8516,317 11.8516,317 5.85156,317 -0.148438,323 -0.148438,329 -0.148438,329 -0.148438,395 -0.148438,395 -0.148438,401 5.85156,407 11.8516,407"/>
<text text-anchor="middle" x="72" y="332.2" font-family="Times,serif" font-size="14.00">SessionsController</text>
<polyline fill="none" stroke="black" points="-0.148438,339 144.148,339 "/>
<polyline fill="none" stroke="black" points="-0.148438,363 144.148,363 "/>
<text text-anchor="start" x="7.85156" y="378.2" font-family="Times,serif" font-size="14.00">after_sign_in_path_for</text>
<polyline fill="none" stroke="black" points="-0.148438,385 144.148,385 "/>
<text text-anchor="start" x="7.85156" y="400.2" font-family="Times,serif" font-size="14.00">_layout</text>
</g>
<!-- UploadsController -->
<g id="node14" class="node"><title>UploadsController</title>
<path fill="none" stroke="black" d="M317.896,33C317.896,33 414.104,33 414.104,33 420.104,33 426.104,27 426.104,21 426.104,21 426.104,-115 426.104,-115 426.104,-121 420.104,-127 414.104,-127 414.104,-127 317.896,-127 317.896,-127 311.896,-127 305.896,-121 305.896,-115 305.896,-115 305.896,21 305.896,21 305.896,27 311.896,33 317.896,33"/>
<text text-anchor="middle" x="366" y="-111.8" font-family="Times,serif" font-size="14.00">UploadsController</text>
<polyline fill="none" stroke="black" points="305.896,-105 426.104,-105 "/>
<text text-anchor="start" x="313.896" y="-89.8" font-family="Times,serif" font-size="14.00">create</text>
<text text-anchor="start" x="313.896" y="-75.8" font-family="Times,serif" font-size="14.00">destroy</text>
<text text-anchor="start" x="313.896" y="-61.8" font-family="Times,serif" font-size="14.00">new</text>
<polyline fill="none" stroke="black" points="305.896,-55 426.104,-55 "/>
<polyline fill="none" stroke="black" points="305.896,-31 426.104,-31 "/>
<text text-anchor="start" x="313.896" y="-15.8" font-family="Times,serif" font-size="14.00">_layout</text>
<text text-anchor="start" x="313.896" y="-1.8" font-family="Times,serif" font-size="14.00">get_uploadable</text>
<text text-anchor="start" x="313.896" y="12.2" font-family="Times,serif" font-size="14.00">upload_params</text>
<text text-anchor="start" x="313.896" y="26.2" font-family="Times,serif" font-size="14.00">uploadable_id</text>
</g>
<!-- Users::OmniauthCallbacksController -->
<g id="node15" class="node"><title>Users::OmniauthCallbacksController</title>
<path fill="none" stroke="black" d="M164.796,152C164.796,152 365.204,152 365.204,152 371.204,152 377.204,146 377.204,140 377.204,140 377.204,72 377.204,72 377.204,66 371.204,60 365.204,60 365.204,60 164.796,60 164.796,60 158.796,60 152.796,66 152.796,72 152.796,72 152.796,140 152.796,140 152.796,146 158.796,152 164.796,152"/>
<text text-anchor="middle" x="265" y="75.2" font-family="Times,serif" font-size="14.00">Users::OmniauthCallbacksController</text>
<polyline fill="none" stroke="black" points="152.796,82 377.204,82 "/>
<polyline fill="none" stroke="black" points="152.796,106 377.204,106 "/>
<polyline fill="none" stroke="black" points="152.796,130 377.204,130 "/>
<text text-anchor="start" x="160.796" y="145.2" font-family="Times,serif" font-size="14.00">_layout</text>
</g>
<!-- Users::RegistrationsController -->
<g id="node16" class="node"><title>Users::RegistrationsController</title>
<path fill="none" stroke="black" d="M318.424,305C318.424,305 505.576,305 505.576,305 511.576,305 517.576,299 517.576,293 517.576,293 517.576,215 517.576,215 517.576,209 511.576,203 505.576,203 505.576,203 318.424,203 318.424,203 312.424,203 306.424,209 306.424,215 306.424,215 306.424,293 306.424,293 306.424,299 312.424,305 318.424,305"/>
<text text-anchor="middle" x="412" y="218.2" font-family="Times,serif" font-size="14.00">Users::RegistrationsController</text>
<polyline fill="none" stroke="black" points="306.424,225 517.576,225 "/>
<text text-anchor="start" x="314.424" y="240.2" font-family="Times,serif" font-size="14.00">update</text>
<polyline fill="none" stroke="black" points="306.424,247 517.576,247 "/>
<text text-anchor="start" x="314.424" y="262.2" font-family="Times,serif" font-size="14.00">configure_account_update_params</text>
<text text-anchor="start" x="314.424" y="276.2" font-family="Times,serif" font-size="14.00">needs_password?</text>
<polyline fill="none" stroke="black" points="306.424,283 517.576,283 "/>
<text text-anchor="start" x="314.424" y="298.2" font-family="Times,serif" font-size="14.00">_layout</text>
</g>
<!-- UsersController -->
<g id="node17" class="node"><title>UsersController</title>
<path fill="none" stroke="black" d="M-225.714,-239C-225.714,-239 -144.286,-239 -144.286,-239 -138.286,-239 -132.286,-245 -132.286,-251 -132.286,-251 -132.286,-401 -132.286,-401 -132.286,-407 -138.286,-413 -144.286,-413 -144.286,-413 -225.714,-413 -225.714,-413 -231.714,-413 -237.714,-407 -237.714,-401 -237.714,-401 -237.714,-251 -237.714,-251 -237.714,-245 -231.714,-239 -225.714,-239"/>
<text text-anchor="middle" x="-185" y="-397.8" font-family="Times,serif" font-size="14.00">UsersController</text>
<polyline fill="none" stroke="black" points="-237.714,-391 -132.286,-391 "/>
<text text-anchor="start" x="-229.714" y="-375.8" font-family="Times,serif" font-size="14.00">destroy</text>
<text text-anchor="start" x="-229.714" y="-361.8" font-family="Times,serif" font-size="14.00">index</text>
<text text-anchor="start" x="-229.714" y="-347.8" font-family="Times,serif" font-size="14.00">show</text>
<polyline fill="none" stroke="black" points="-237.714,-341 -132.286,-341 "/>
<polyline fill="none" stroke="black" points="-237.714,-317 -132.286,-317 "/>
<text text-anchor="start" x="-229.714" y="-301.8" font-family="Times,serif" font-size="14.00">_layout</text>
<text text-anchor="start" x="-229.714" y="-287.8" font-family="Times,serif" font-size="14.00">admin_only</text>
<text text-anchor="start" x="-229.714" y="-273.8" font-family="Times,serif" font-size="14.00">secure_params</text>
<text text-anchor="start" x="-229.714" y="-259.8" font-family="Times,serif" font-size="14.00">set_user</text>
<text text-anchor="start" x="-229.714" y="-245.8" font-family="Times,serif" font-size="14.00">user_privacy</text>
</g>
</g>
</svg>
