<?xml version="1.0" encoding="UTF-8" standalone="no"?>
<!DOCTYPE svg PUBLIC "-//W3C//DTD SVG 1.1//EN"
 "http://www.w3.org/Graphics/SVG/1.1/DTD/svg11.dtd">
<!-- Generated by graphviz version 2.38.0 (20140413.2041)
 -->
<!-- Title: models_diagram Pages: 1 -->
<svg width="816pt" height="1154pt"
 viewBox="0.00 0.00 815.74 1154.00" xmlns="http://www.w3.org/2000/svg" xmlns:xlink="http://www.w3.org/1999/xlink">
<g id="graph0" class="graph" transform="scale(1 1) rotate(0) translate(4 1150)">
<title>models_diagram</title>
<polygon fill="white" stroke="none" points="-4,4 -4,-1150 811.736,-1150 811.736,4 -4,4"/>
<!-- _diagram_info -->
<g id="node1" class="node"><title>_diagram_info</title>
<text text-anchor="start" x="8" y="-879.6" font-family="Times,serif" font-size="13.00">Models diagram</text>
<text text-anchor="start" x="8" y="-866.6" font-family="Times,serif" font-size="13.00">Date: Nov 15 2014 &#45; 13:46</text>
<text text-anchor="start" x="8" y="-853.6" font-family="Times,serif" font-size="13.00">Migration version: 20141112171329</text>
<text text-anchor="start" x="8" y="-840.6" font-family="Times,serif" font-size="13.00">Generated by RailRoady 1.2.0</text>
<text text-anchor="start" x="8" y="-827.6" font-family="Times,serif" font-size="13.00">http://railroady.prestonlee.com</text>
</g>
<!-- Bid -->
<g id="node2" class="node"><title>Bid</title>
<path fill="none" stroke="black" d="M277.765,-28.5C277.765,-28.5 390.658,-28.5 390.658,-28.5 396.658,-28.5 402.658,-34.5 402.658,-40.5 402.658,-40.5 402.658,-158.5 402.658,-158.5 402.658,-164.5 396.658,-170.5 390.658,-170.5 390.658,-170.5 277.765,-170.5 277.765,-170.5 271.765,-170.5 265.765,-164.5 265.765,-158.5 265.765,-158.5 265.765,-40.5 265.765,-40.5 265.765,-34.5 271.765,-28.5 277.765,-28.5"/>
<text text-anchor="middle" x="334.212" y="-155.3" font-family="Times,serif" font-size="14.00">Bid</text>
<polyline fill="none" stroke="black" points="265.765,-148.5 402.658,-148.5 "/>
<text text-anchor="start" x="273.765" y="-133.3" font-family="Times,serif" font-size="14.00">id :integer</text>
<text text-anchor="start" x="273.765" y="-119.3" font-family="Times,serif" font-size="14.00">job_id :integer</text>
<text text-anchor="start" x="273.765" y="-105.3" font-family="Times,serif" font-size="14.00">contractor_id :integer</text>
<text text-anchor="start" x="273.765" y="-91.3" font-family="Times,serif" font-size="14.00">cost :integer</text>
<text text-anchor="start" x="273.765" y="-77.3" font-family="Times,serif" font-size="14.00">accepted :boolean</text>
<text text-anchor="start" x="273.765" y="-63.3" font-family="Times,serif" font-size="14.00">created_at :datetime</text>
<text text-anchor="start" x="273.765" y="-49.3" font-family="Times,serif" font-size="14.00">updated_at :datetime</text>
<text text-anchor="start" x="273.765" y="-35.3" font-family="Times,serif" font-size="14.00">rejected :boolean</text>
</g>
<!-- Comment -->
<g id="node3" class="node"><title>Comment</title>
<path fill="none" stroke="black" d="M445.875,-0.5C445.875,-0.5 594.548,-0.5 594.548,-0.5 600.548,-0.5 606.548,-6.5 606.548,-12.5 606.548,-12.5 606.548,-186.5 606.548,-186.5 606.548,-192.5 600.548,-198.5 594.548,-198.5 594.548,-198.5 445.875,-198.5 445.875,-198.5 439.875,-198.5 433.875,-192.5 433.875,-186.5 433.875,-186.5 433.875,-12.5 433.875,-12.5 433.875,-6.5 439.875,-0.5 445.875,-0.5"/>
<text text-anchor="middle" x="520.212" y="-183.3" font-family="Times,serif" font-size="14.00">Comment</text>
<polyline fill="none" stroke="black" points="433.875,-176.5 606.548,-176.5 "/>
<text text-anchor="start" x="441.875" y="-161.3" font-family="Times,serif" font-size="14.00">id :integer</text>
<text text-anchor="start" x="441.875" y="-147.3" font-family="Times,serif" font-size="14.00">commentable_id :integer</text>
<text text-anchor="start" x="441.875" y="-133.3" font-family="Times,serif" font-size="14.00">commentable_type :string</text>
<text text-anchor="start" x="441.875" y="-119.3" font-family="Times,serif" font-size="14.00">body :text</text>
<text text-anchor="start" x="441.875" y="-105.3" font-family="Times,serif" font-size="14.00">subject :string</text>
<text text-anchor="start" x="441.875" y="-91.3" font-family="Times,serif" font-size="14.00">parent_id :integer</text>
<text text-anchor="start" x="441.875" y="-77.3" font-family="Times,serif" font-size="14.00">lft :integer</text>
<text text-anchor="start" x="441.875" y="-63.3" font-family="Times,serif" font-size="14.00">rgt :integer</text>
<text text-anchor="start" x="441.875" y="-49.3" font-family="Times,serif" font-size="14.00">created_at :datetime</text>
<text text-anchor="start" x="441.875" y="-35.3" font-family="Times,serif" font-size="14.00">updated_at :datetime</text>
<text text-anchor="start" x="441.875" y="-21.3" font-family="Times,serif" font-size="14.00">commenterable_id :integer</text>
<text text-anchor="start" x="441.875" y="-7.3" font-family="Times,serif" font-size="14.00">commenterable_type :string</text>
</g>
<!-- Comment&#45;&gt;Comment -->
<g id="edge1" class="edge"><title>Comment&#45;&gt;Comment</title>
<path fill="none" stroke="#eb683a" d="M613.952,-116.475C620.534,-112.605 624.548,-106.947 624.548,-99.5 624.548,-92.8285 621.327,-87.5928 615.923,-83.7928"/>
<ellipse fill="none" stroke="#eb683a" cx="610.224" cy="-118.127" rx="4.00002" ry="4.00002"/>
<polygon fill="#eb683a" stroke="#eb683a" points="615.564,-83.6184 608.532,-75.2042 611.066,-81.4356 606.567,-79.2527 606.567,-79.2527 606.567,-79.2527 611.066,-81.4356 604.603,-83.3013 615.564,-83.6184 615.564,-83.6184"/>
<text text-anchor="middle" x="647.483" y="-95.3" font-family="Times,serif" font-size="14.00">children</text>
</g>
<!-- Contact -->
<g id="node4" class="node"><title>Contact</title>
<polygon fill="none" stroke="black" points="704.439,-835.5 704.439,-879.5 763.984,-879.5 763.984,-835.5 704.439,-835.5"/>
<text text-anchor="middle" x="734.212" y="-864.3" font-family="Times,serif" font-size="14.00">Contact</text>
<polyline fill="none" stroke="black" points="704.439,-857.5 763.984,-857.5 "/>
<text text-anchor="middle" x="734.212" y="-842.3" font-family="Times,serif" font-size="14.00"> </text>
</g>
<!-- Contractor -->
<g id="node5" class="node"><title>Contractor</title>
<path fill="none" stroke="black" d="M235.934,-569.5C235.934,-569.5 416.49,-569.5 416.49,-569.5 422.49,-569.5 428.49,-575.5 428.49,-581.5 428.49,-581.5 428.49,-1133.5 428.49,-1133.5 428.49,-1139.5 422.49,-1145.5 416.49,-1145.5 416.49,-1145.5 235.934,-1145.5 235.934,-1145.5 229.934,-1145.5 223.934,-1139.5 223.934,-1133.5 223.934,-1133.5 223.934,-581.5 223.934,-581.5 223.934,-575.5 229.934,-569.5 235.934,-569.5"/>
<text text-anchor="middle" x="326.212" y="-1130.3" font-family="Times,serif" font-size="14.00">Contractor</text>
<polyline fill="none" stroke="black" points="223.934,-1123.5 428.49,-1123.5 "/>
<text text-anchor="start" x="231.934" y="-1108.3" font-family="Times,serif" font-size="14.00">id :integer</text>
<text text-anchor="start" x="231.934" y="-1094.3" font-family="Times,serif" font-size="14.00">email :string</text>
<text text-anchor="start" x="231.934" y="-1080.3" font-family="Times,serif" font-size="14.00">encrypted_password :string</text>
<text text-anchor="start" x="231.934" y="-1066.3" font-family="Times,serif" font-size="14.00">reset_password_token :string</text>
<text text-anchor="start" x="231.934" y="-1052.3" font-family="Times,serif" font-size="14.00">reset_password_sent_at :datetime</text>
<text text-anchor="start" x="231.934" y="-1038.3" font-family="Times,serif" font-size="14.00">remember_created_at :datetime</text>
<text text-anchor="start" x="231.934" y="-1024.3" font-family="Times,serif" font-size="14.00">sign_in_count :integer</text>
<text text-anchor="start" x="231.934" y="-1010.3" font-family="Times,serif" font-size="14.00">current_sign_in_at :datetime</text>
<text text-anchor="start" x="231.934" y="-996.3" font-family="Times,serif" font-size="14.00">last_sign_in_at :datetime</text>
<text text-anchor="start" x="231.934" y="-982.3" font-family="Times,serif" font-size="14.00">current_sign_in_ip :inet</text>
<text text-anchor="start" x="231.934" y="-968.3" font-family="Times,serif" font-size="14.00">last_sign_in_ip :inet</text>
<text text-anchor="start" x="231.934" y="-954.3" font-family="Times,serif" font-size="14.00">confirmation_token :string</text>
<text text-anchor="start" x="231.934" y="-940.3" font-family="Times,serif" font-size="14.00">confirmed_at :datetime</text>
<text text-anchor="start" x="231.934" y="-926.3" font-family="Times,serif" font-size="14.00">confirmation_sent_at :datetime</text>
<text text-anchor="start" x="231.934" y="-912.3" font-family="Times,serif" font-size="14.00">unconfirmed_email :string</text>
<text text-anchor="start" x="231.934" y="-898.3" font-family="Times,serif" font-size="14.00">failed_attempts :integer</text>
<text text-anchor="start" x="231.934" y="-884.3" font-family="Times,serif" font-size="14.00">unlock_token :string</text>
<text text-anchor="start" x="231.934" y="-870.3" font-family="Times,serif" font-size="14.00">locked_at :datetime</text>
<text text-anchor="start" x="231.934" y="-856.3" font-family="Times,serif" font-size="14.00">created_at :datetime</text>
<text text-anchor="start" x="231.934" y="-842.3" font-family="Times,serif" font-size="14.00">updated_at :datetime</text>
<text text-anchor="start" x="231.934" y="-828.3" font-family="Times,serif" font-size="14.00">invitation_token :string</text>
<text text-anchor="start" x="231.934" y="-814.3" font-family="Times,serif" font-size="14.00">invitation_created_at :datetime</text>
<text text-anchor="start" x="231.934" y="-800.3" font-family="Times,serif" font-size="14.00">invitation_sent_at :datetime</text>
<text text-anchor="start" x="231.934" y="-786.3" font-family="Times,serif" font-size="14.00">invitation_accepted_at :datetime</text>
<text text-anchor="start" x="231.934" y="-772.3" font-family="Times,serif" font-size="14.00">invitation_limit :integer</text>
<text text-anchor="start" x="231.934" y="-758.3" font-family="Times,serif" font-size="14.00">invited_by_id :integer</text>
<text text-anchor="start" x="231.934" y="-744.3" font-family="Times,serif" font-size="14.00">invited_by_type :string</text>
<text text-anchor="start" x="231.934" y="-730.3" font-family="Times,serif" font-size="14.00">invitations_count :integer</text>
<text text-anchor="start" x="231.934" y="-716.3" font-family="Times,serif" font-size="14.00">categories :text</text>
<text text-anchor="start" x="231.934" y="-702.3" font-family="Times,serif" font-size="14.00">name :string</text>
<text text-anchor="start" x="231.934" y="-688.3" font-family="Times,serif" font-size="14.00">description :text</text>
<text text-anchor="start" x="231.934" y="-674.3" font-family="Times,serif" font-size="14.00">phone :string</text>
<text text-anchor="start" x="231.934" y="-660.3" font-family="Times,serif" font-size="14.00">address :string</text>
<text text-anchor="start" x="231.934" y="-646.3" font-family="Times,serif" font-size="14.00">city :string</text>
<text text-anchor="start" x="231.934" y="-632.3" font-family="Times,serif" font-size="14.00">company_name :string</text>
<text text-anchor="start" x="231.934" y="-618.3" font-family="Times,serif" font-size="14.00">zip_code :integer</text>
<text text-anchor="start" x="231.934" y="-604.3" font-family="Times,serif" font-size="14.00">state :string</text>
<text text-anchor="start" x="231.934" y="-590.3" font-family="Times,serif" font-size="14.00">latitude :float</text>
<text text-anchor="start" x="231.934" y="-576.3" font-family="Times,serif" font-size="14.00">longitude :float</text>
</g>
<!-- Contractor&#45;&gt;Bid -->
<g id="edge5" class="edge"><title>Contractor&#45;&gt;Bid</title>
<path fill="none" stroke="#f10b25" d="M297.976,-561.165C293.629,-461.626 294.423,-350.155 308.212,-249 309.333,-240.773 311.438,-239.111 313.212,-231 316.743,-214.848 319.95,-197.452 322.735,-180.79"/>
<ellipse fill="none" stroke="#f10b25" cx="298.159" cy="-565.23" rx="4" ry="4"/>
<polygon fill="#f10b25" stroke="#f10b25" points="322.8,-180.398 328.855,-171.255 323.607,-175.463 324.414,-170.529 324.414,-170.529 324.414,-170.529 323.607,-175.463 319.973,-169.802 322.8,-180.398 322.8,-180.398"/>
</g>
<!-- Contractor&#45;&gt;Comment -->
<g id="edge3" class="edge"><title>Contractor&#45;&gt;Comment</title>
<path fill="none" stroke="#2c3377" d="M432.631,-631.221C445.409,-609.632 459,-588.531 473.212,-569 479.868,-559.852 485.823,-560.948 491.212,-551 522.058,-494.057 525.164,-322.891 523.49,-208.708"/>
<ellipse fill="none" stroke="#2c3377" cx="430.534" cy="-634.796" rx="4.00002" ry="4.00002"/>
<polygon fill="#2c3377" stroke="#2c3377" points="523.487,-208.529 527.826,-198.457 523.407,-203.529 523.326,-198.53 523.326,-198.53 523.326,-198.53 523.407,-203.529 518.827,-198.602 523.487,-208.529 523.487,-208.529"/>
<text text-anchor="middle" x="572.974" y="-386.3" font-family="Times,serif" font-size="14.00">comment_threads</text>
</g>
<!-- Contractor&#45;&gt;Comment -->
<g id="edge4" class="edge"><title>Contractor&#45;&gt;Comment</title>
<path fill="none" stroke="#f002e9" d="M431.491,-627.455C443.264,-595.857 453.963,-563.453 462.212,-532 494.334,-409.512 477.361,-374.366 495.212,-249 497.08,-235.879 499.189,-222.13 501.369,-208.518"/>
<ellipse fill="none" stroke="#f002e9" cx="430.048" cy="-631.294" rx="4.00001" ry="4.00001"/>
<polygon fill="#f002e9" stroke="#f002e9" points="501.37,-208.513 507.41,-199.361 502.169,-203.578 502.968,-198.642 502.968,-198.642 502.968,-198.642 502.169,-203.578 498.525,-197.923 501.37,-208.513 501.37,-208.513"/>
</g>
<!-- Example -->
<g id="node6" class="node"><title>Example</title>
<path fill="none" stroke="black" d="M98.7649,-298.5C98.7649,-298.5 211.658,-298.5 211.658,-298.5 217.658,-298.5 223.658,-304.5 223.658,-310.5 223.658,-310.5 223.658,-470.5 223.658,-470.5 223.658,-476.5 217.658,-482.5 211.658,-482.5 211.658,-482.5 98.7649,-482.5 98.7649,-482.5 92.7649,-482.5 86.7649,-476.5 86.7649,-470.5 86.7649,-470.5 86.7649,-310.5 86.7649,-310.5 86.7649,-304.5 92.7649,-298.5 98.7649,-298.5"/>
<text text-anchor="middle" x="155.212" y="-467.3" font-family="Times,serif" font-size="14.00">Example</text>
<polyline fill="none" stroke="black" points="86.7649,-460.5 223.658,-460.5 "/>
<text text-anchor="start" x="94.7649" y="-445.3" font-family="Times,serif" font-size="14.00">id :integer</text>
<text text-anchor="start" x="94.7649" y="-431.3" font-family="Times,serif" font-size="14.00">title :string</text>
<text text-anchor="start" x="94.7649" y="-417.3" font-family="Times,serif" font-size="14.00">zip_code :integer</text>
<text text-anchor="start" x="94.7649" y="-403.3" font-family="Times,serif" font-size="14.00">description :string</text>
<text text-anchor="start" x="94.7649" y="-389.3" font-family="Times,serif" font-size="14.00">duration :integer</text>
<text text-anchor="start" x="94.7649" y="-375.3" font-family="Times,serif" font-size="14.00">duration_unit :string</text>
<text text-anchor="start" x="94.7649" y="-361.3" font-family="Times,serif" font-size="14.00">cost :integer</text>
<text text-anchor="start" x="94.7649" y="-347.3" font-family="Times,serif" font-size="14.00">categories :text</text>
<text text-anchor="start" x="94.7649" y="-333.3" font-family="Times,serif" font-size="14.00">contractor_id :integer</text>
<text text-anchor="start" x="94.7649" y="-319.3" font-family="Times,serif" font-size="14.00">created_at :datetime</text>
<text text-anchor="start" x="94.7649" y="-305.3" font-family="Times,serif" font-size="14.00">updated_at :datetime</text>
</g>
<!-- Contractor&#45;&gt;Example -->
<g id="edge7" class="edge"><title>Contractor&#45;&gt;Example</title>
<path fill="none" stroke="#3b3344" d="M221.103,-570.679C210.866,-542.841 201.026,-516.081 192.212,-492.115"/>
<ellipse fill="none" stroke="#3b3344" cx="222.521" cy="-574.534" rx="4.00001" ry="4.00001"/>
<polygon fill="#3b3344" stroke="#3b3344" points="192.21,-492.108 192.982,-481.17 190.484,-487.416 188.758,-482.723 188.758,-482.723 188.758,-482.723 190.484,-487.416 184.535,-484.276 192.21,-492.108 192.21,-492.108"/>
</g>
<!-- Job -->
<g id="node7" class="node"><title>Job</title>
<path fill="none" stroke="black" d="M328.765,-249.5C328.765,-249.5 441.658,-249.5 441.658,-249.5 447.658,-249.5 453.658,-255.5 453.658,-261.5 453.658,-261.5 453.658,-519.5 453.658,-519.5 453.658,-525.5 447.658,-531.5 441.658,-531.5 441.658,-531.5 328.765,-531.5 328.765,-531.5 322.765,-531.5 316.765,-525.5 316.765,-519.5 316.765,-519.5 316.765,-261.5 316.765,-261.5 316.765,-255.5 322.765,-249.5 328.765,-249.5"/>
<text text-anchor="middle" x="385.212" y="-516.3" font-family="Times,serif" font-size="14.00">Job</text>
<polyline fill="none" stroke="black" points="316.765,-509.5 453.658,-509.5 "/>
<text text-anchor="start" x="324.765" y="-494.3" font-family="Times,serif" font-size="14.00">id :integer</text>
<text text-anchor="start" x="324.765" y="-480.3" font-family="Times,serif" font-size="14.00">title :string</text>
<text text-anchor="start" x="324.765" y="-466.3" font-family="Times,serif" font-size="14.00">description :text</text>
<text text-anchor="start" x="324.765" y="-452.3" font-family="Times,serif" font-size="14.00">zip_code :integer</text>
<text text-anchor="start" x="324.765" y="-438.3" font-family="Times,serif" font-size="14.00">user_id :integer</text>
<text text-anchor="start" x="324.765" y="-424.3" font-family="Times,serif" font-size="14.00">contractor_id :integer</text>
<text text-anchor="start" x="324.765" y="-410.3" font-family="Times,serif" font-size="14.00">created_at :datetime</text>
<text text-anchor="start" x="324.765" y="-396.3" font-family="Times,serif" font-size="14.00">updated_at :datetime</text>
<text text-anchor="start" x="324.765" y="-382.3" font-family="Times,serif" font-size="14.00">categories :text</text>
<text text-anchor="start" x="324.765" y="-368.3" font-family="Times,serif" font-size="14.00">phone :string</text>
<text text-anchor="start" x="324.765" y="-354.3" font-family="Times,serif" font-size="14.00">bid_date :date</text>
<text text-anchor="start" x="324.765" y="-340.3" font-family="Times,serif" font-size="14.00">latitude :float</text>
<text text-anchor="start" x="324.765" y="-326.3" font-family="Times,serif" font-size="14.00">longitude :float</text>
<text text-anchor="start" x="324.765" y="-312.3" font-family="Times,serif" font-size="14.00">address :string</text>
<text text-anchor="start" x="324.765" y="-298.3" font-family="Times,serif" font-size="14.00">city :string</text>
<text text-anchor="start" x="324.765" y="-284.3" font-family="Times,serif" font-size="14.00">state :string</text>
<text text-anchor="start" x="324.765" y="-270.3" font-family="Times,serif" font-size="14.00">bidding_period :date</text>
<text text-anchor="start" x="324.765" y="-256.3" font-family="Times,serif" font-size="14.00">cost :integer</text>
</g>
<!-- Contractor&#45;&gt;Job -->
<g id="edge6" class="edge"><title>Contractor&#45;&gt;Job</title>
<path fill="none" stroke="#a80634" d="M363.947,-559.094C364.688,-553.256 365.421,-547.477 366.145,-541.773"/>
<polygon fill="#a80634" stroke="#a80634" points="363.913,-559.366 358.19,-568.72 363.283,-564.327 362.654,-569.287 362.654,-569.287 362.654,-569.287 363.283,-564.327 367.118,-569.853 363.913,-559.366 363.913,-559.366"/>
<polygon fill="#a80634" stroke="#a80634" points="366.178,-541.513 371.901,-532.159 366.807,-536.553 367.436,-531.593 367.436,-531.593 367.436,-531.593 366.807,-536.553 362.972,-531.026 366.178,-541.513 366.178,-541.513"/>
</g>
<!-- Upload -->
<g id="node8" class="node"><title>Upload</title>
<path fill="none" stroke="black" d="M66.1028,-0.5C66.1028,-0.5 216.321,-0.5 216.321,-0.5 222.321,-0.5 228.321,-6.5 228.321,-12.5 228.321,-12.5 228.321,-186.5 228.321,-186.5 228.321,-192.5 222.321,-198.5 216.321,-198.5 216.321,-198.5 66.1028,-198.5 66.1028,-198.5 60.1028,-198.5 54.1028,-192.5 54.1028,-186.5 54.1028,-186.5 54.1028,-12.5 54.1028,-12.5 54.1028,-6.5 60.1028,-0.5 66.1028,-0.5"/>
<text text-anchor="middle" x="141.212" y="-183.3" font-family="Times,serif" font-size="14.00">Upload</text>
<polyline fill="none" stroke="black" points="54.1028,-176.5 228.321,-176.5 "/>
<text text-anchor="start" x="62.1028" y="-161.3" font-family="Times,serif" font-size="14.00">id :integer</text>
<text text-anchor="start" x="62.1028" y="-147.3" font-family="Times,serif" font-size="14.00">created_at :datetime</text>
<text text-anchor="start" x="62.1028" y="-133.3" font-family="Times,serif" font-size="14.00">updated_at :datetime</text>
<text text-anchor="start" x="62.1028" y="-119.3" font-family="Times,serif" font-size="14.00">image_file_name :string</text>
<text text-anchor="start" x="62.1028" y="-105.3" font-family="Times,serif" font-size="14.00">image_content_type :string</text>
<text text-anchor="start" x="62.1028" y="-91.3" font-family="Times,serif" font-size="14.00">image_file_size :integer</text>
<text text-anchor="start" x="62.1028" y="-77.3" font-family="Times,serif" font-size="14.00">image_updated_at :datetime</text>
<text text-anchor="start" x="62.1028" y="-63.3" font-family="Times,serif" font-size="14.00">uploadable_id :integer</text>
<text text-anchor="start" x="62.1028" y="-49.3" font-family="Times,serif" font-size="14.00">uploadable_type :string</text>
<text text-anchor="start" x="62.1028" y="-35.3" font-family="Times,serif" font-size="14.00">before :boolean</text>
<text text-anchor="start" x="62.1028" y="-21.3" font-family="Times,serif" font-size="14.00">after :boolean</text>
<text text-anchor="start" x="62.1028" y="-7.3" font-family="Times,serif" font-size="14.00">image_processing :boolean</text>
</g>
<!-- Contractor&#45;&gt;Upload -->
<g id="edge2" class="edge"><title>Contractor&#45;&gt;Upload</title>
<path fill="none" stroke="#bc992f" d="M217.984,-571.543C217.068,-570.687 216.144,-569.839 215.212,-569 168.342,-526.797 116.557,-582.075 78.2117,-532 7.49659,-439.653 44.3485,-302.738 85.127,-208.008"/>
<ellipse fill="none" stroke="#bc992f" cx="221.054" cy="-574.528" rx="4.00002" ry="4.00002"/>
<polygon fill="#bc992f" stroke="#bc992f" points="85.1972,-207.848 93.3318,-200.494 87.2036,-203.268 89.21,-198.688 89.21,-198.688 89.21,-198.688 87.2036,-203.268 85.0882,-196.883 85.1972,-207.848 85.1972,-207.848"/>
</g>
<!-- Example&#45;&gt;Comment -->
<g id="edge8" class="edge"><title>Example&#45;&gt;Comment</title>
<path fill="none" stroke="#00624d" d="M203.954,-291.529C222.828,-263.11 247.112,-234.935 276.687,-217 328.266,-185.721 356.481,-224.361 411.212,-199 415.865,-196.844 420.46,-194.418 424.978,-191.779"/>
<ellipse fill="none" stroke="#00624d" cx="201.697" cy="-295.008" rx="4.00002" ry="4.00002"/>
<polygon fill="#00624d" stroke="#00624d" points="425.064,-191.726 435.934,-190.281 429.313,-189.091 433.563,-186.456 433.563,-186.456 433.563,-186.456 429.313,-189.091 431.192,-182.632 425.064,-191.726 425.064,-191.726"/>
<text text-anchor="middle" x="325.974" y="-219.8" font-family="Times,serif" font-size="14.00">comment_threads</text>
</g>
<!-- Example&#45;&gt;Upload -->
<g id="edge9" class="edge"><title>Example&#45;&gt;Upload</title>
<path fill="none" stroke="#1f4b62" d="M146.768,-290.153C145.363,-270.559 144.082,-250.141 143.212,-231 142.879,-223.681 142.598,-216.13 142.362,-208.521"/>
<ellipse fill="none" stroke="#1f4b62" cx="147.064" cy="-294.21" rx="4" ry="4"/>
<polygon fill="#1f4b62" stroke="#1f4b62" points="142.361,-208.496 146.574,-198.372 142.219,-203.498 142.076,-198.5 142.076,-198.5 142.076,-198.5 142.219,-203.498 137.578,-198.628 142.361,-208.496 142.361,-208.496"/>
</g>
<!-- Job&#45;&gt;Bid -->
<g id="edge12" class="edge"><title>Job&#45;&gt;Bid</title>
<path fill="none" stroke="#2976d9" d="M359.046,-241.225C355.357,-220.324 351.687,-199.527 348.345,-180.587"/>
<ellipse fill="none" stroke="#2976d9" cx="359.763" cy="-245.294" rx="4.00001" ry="4.00001"/>
<polygon fill="#2976d9" stroke="#2976d9" points="348.314,-180.413 351.008,-169.783 347.445,-175.489 346.576,-170.565 346.576,-170.565 346.576,-170.565 347.445,-175.489 342.145,-171.348 348.314,-180.413 348.314,-180.413"/>
</g>
<!-- Job&#45;&gt;Comment -->
<g id="edge10" class="edge"><title>Job&#45;&gt;Comment</title>
<path fill="none" stroke="#bc4389" d="M377.277,-241.458C379.63,-232.977 382.717,-224.756 386.687,-217 392.848,-204.965 400.733,-207.544 411.212,-199 416.076,-195.034 421.013,-190.92 425.963,-186.723"/>
<ellipse fill="none" stroke="#bc4389" cx="376.286" cy="-245.432" rx="4.00001" ry="4.00001"/>
<polygon fill="#bc4389" stroke="#bc4389" points="426.144,-186.569 436.669,-183.49 429.944,-183.319 433.744,-180.07 433.744,-180.07 433.744,-180.07 429.944,-183.319 430.82,-176.65 426.144,-186.569 426.144,-186.569"/>
<text text-anchor="middle" x="435.974" y="-219.8" font-family="Times,serif" font-size="14.00">comment_threads</text>
</g>
<!-- Job&#45;&gt;Upload -->
<g id="edge11" class="edge"><title>Job&#45;&gt;Upload</title>
<path fill="none" stroke="#686d9a" d="M310.63,-286.311C296.828,-272.207 281.558,-259.123 265.212,-249 237.168,-231.634 218.047,-252.707 193.212,-231 185.419,-224.189 178.781,-216.049 173.129,-207.21"/>
<ellipse fill="none" stroke="#686d9a" cx="313.692" cy="-289.519" rx="4.00002" ry="4.00002"/>
<polygon fill="#686d9a" stroke="#686d9a" points="173.093,-207.15 171.881,-196.251 170.55,-202.845 168.006,-198.54 168.006,-198.54 168.006,-198.54 170.55,-202.845 164.132,-200.83 173.093,-207.15 173.093,-207.15"/>
</g>
<!-- User -->
<g id="node9" class="node"><title>User</title>
<path fill="none" stroke="black" d="M493.934,-576.5C493.934,-576.5 674.49,-576.5 674.49,-576.5 680.49,-576.5 686.49,-582.5 686.49,-588.5 686.49,-588.5 686.49,-1126.5 686.49,-1126.5 686.49,-1132.5 680.49,-1138.5 674.49,-1138.5 674.49,-1138.5 493.934,-1138.5 493.934,-1138.5 487.934,-1138.5 481.934,-1132.5 481.934,-1126.5 481.934,-1126.5 481.934,-588.5 481.934,-588.5 481.934,-582.5 487.934,-576.5 493.934,-576.5"/>
<text text-anchor="middle" x="584.212" y="-1123.3" font-family="Times,serif" font-size="14.00">User</text>
<polyline fill="none" stroke="black" points="481.934,-1116.5 686.49,-1116.5 "/>
<text text-anchor="start" x="489.934" y="-1101.3" font-family="Times,serif" font-size="14.00">id :integer</text>
<text text-anchor="start" x="489.934" y="-1087.3" font-family="Times,serif" font-size="14.00">email :string</text>
<text text-anchor="start" x="489.934" y="-1073.3" font-family="Times,serif" font-size="14.00">encrypted_password :string</text>
<text text-anchor="start" x="489.934" y="-1059.3" font-family="Times,serif" font-size="14.00">reset_password_token :string</text>
<text text-anchor="start" x="489.934" y="-1045.3" font-family="Times,serif" font-size="14.00">reset_password_sent_at :datetime</text>
<text text-anchor="start" x="489.934" y="-1031.3" font-family="Times,serif" font-size="14.00">remember_created_at :datetime</text>
<text text-anchor="start" x="489.934" y="-1017.3" font-family="Times,serif" font-size="14.00">sign_in_count :integer</text>
<text text-anchor="start" x="489.934" y="-1003.3" font-family="Times,serif" font-size="14.00">current_sign_in_at :datetime</text>
<text text-anchor="start" x="489.934" y="-989.3" font-family="Times,serif" font-size="14.00">last_sign_in_at :datetime</text>
<text text-anchor="start" x="489.934" y="-975.3" font-family="Times,serif" font-size="14.00">current_sign_in_ip :inet</text>
<text text-anchor="start" x="489.934" y="-961.3" font-family="Times,serif" font-size="14.00">last_sign_in_ip :inet</text>
<text text-anchor="start" x="489.934" y="-947.3" font-family="Times,serif" font-size="14.00">created_at :datetime</text>
<text text-anchor="start" x="489.934" y="-933.3" font-family="Times,serif" font-size="14.00">updated_at :datetime</text>
<text text-anchor="start" x="489.934" y="-919.3" font-family="Times,serif" font-size="14.00">name :string</text>
<text text-anchor="start" x="489.934" y="-905.3" font-family="Times,serif" font-size="14.00">confirmation_token :string</text>
<text text-anchor="start" x="489.934" y="-891.3" font-family="Times,serif" font-size="14.00">confirmed_at :datetime</text>
<text text-anchor="start" x="489.934" y="-877.3" font-family="Times,serif" font-size="14.00">confirmation_sent_at :datetime</text>
<text text-anchor="start" x="489.934" y="-863.3" font-family="Times,serif" font-size="14.00">unconfirmed_email :string</text>
<text text-anchor="start" x="489.934" y="-849.3" font-family="Times,serif" font-size="14.00">role :integer</text>
<text text-anchor="start" x="489.934" y="-835.3" font-family="Times,serif" font-size="14.00">invitation_token :string</text>
<text text-anchor="start" x="489.934" y="-821.3" font-family="Times,serif" font-size="14.00">invitation_created_at :datetime</text>
<text text-anchor="start" x="489.934" y="-807.3" font-family="Times,serif" font-size="14.00">invitation_sent_at :datetime</text>
<text text-anchor="start" x="489.934" y="-793.3" font-family="Times,serif" font-size="14.00">invitation_accepted_at :datetime</text>
<text text-anchor="start" x="489.934" y="-779.3" font-family="Times,serif" font-size="14.00">invitation_limit :integer</text>
<text text-anchor="start" x="489.934" y="-765.3" font-family="Times,serif" font-size="14.00">invited_by_id :integer</text>
<text text-anchor="start" x="489.934" y="-751.3" font-family="Times,serif" font-size="14.00">invited_by_type :string</text>
<text text-anchor="start" x="489.934" y="-737.3" font-family="Times,serif" font-size="14.00">invitations_count :integer</text>
<text text-anchor="start" x="489.934" y="-723.3" font-family="Times,serif" font-size="14.00">failed_attempts :integer</text>
<text text-anchor="start" x="489.934" y="-709.3" font-family="Times,serif" font-size="14.00">unlock_token :string</text>
<text text-anchor="start" x="489.934" y="-695.3" font-family="Times,serif" font-size="14.00">locked_at :datetime</text>
<text text-anchor="start" x="489.934" y="-681.3" font-family="Times,serif" font-size="14.00">zip_code :integer</text>
<text text-anchor="start" x="489.934" y="-667.3" font-family="Times,serif" font-size="14.00">phone :string</text>
<text text-anchor="start" x="489.934" y="-653.3" font-family="Times,serif" font-size="14.00">categories :text</text>
<text text-anchor="start" x="489.934" y="-639.3" font-family="Times,serif" font-size="14.00">city :string</text>
<text text-anchor="start" x="489.934" y="-625.3" font-family="Times,serif" font-size="14.00">address :string</text>
<text text-anchor="start" x="489.934" y="-611.3" font-family="Times,serif" font-size="14.00">state :string</text>
<text text-anchor="start" x="489.934" y="-597.3" font-family="Times,serif" font-size="14.00">latitude :float</text>
<text text-anchor="start" x="489.934" y="-583.3" font-family="Times,serif" font-size="14.00">longitude :float</text>
</g>
<!-- User&#45;&gt;Comment -->
<g id="edge14" class="edge"><title>User&#45;&gt;Comment</title>
<path fill="none" stroke="#e036fd" d="M688.405,-577.333C715.119,-461.025 723.126,-327.592 669.212,-217 657.037,-192.027 636.634,-170.835 614.772,-153.654"/>
<ellipse fill="none" stroke="#e036fd" cx="687.447" cy="-581.428" rx="4.00001" ry="4.00001"/>
<polygon fill="#e036fd" stroke="#e036fd" points="614.632,-153.548 609.383,-143.92 610.648,-150.527 606.664,-147.506 606.664,-147.506 606.664,-147.506 610.648,-150.527 603.945,-151.091 614.632,-153.548 614.632,-153.548"/>
<text text-anchor="middle" x="757.974" y="-386.3" font-family="Times,serif" font-size="14.00">comment_threads</text>
</g>
<!-- User&#45;&gt;Comment -->
<g id="edge15" class="edge"><title>User&#45;&gt;Comment</title>
<path fill="none" stroke="#ada85c" d="M652.243,-568.429C664.711,-465.48 664.792,-350.013 631.212,-249 626.464,-234.718 619.748,-220.7 611.94,-207.324"/>
<ellipse fill="none" stroke="#ada85c" cx="651.738" cy="-572.48" rx="4.00001" ry="4.00001"/>
<polygon fill="#ada85c" stroke="#ada85c" points="611.852,-207.179 610.508,-196.296 609.257,-202.905 606.662,-198.632 606.662,-198.632 606.662,-198.632 609.257,-202.905 602.815,-200.967 611.852,-207.179 611.852,-207.179"/>
</g>
<!-- User&#45;&gt;Job -->
<g id="edge16" class="edge"><title>User&#45;&gt;Job</title>
<path fill="none" stroke="#43d990" d="M478.57,-609.649C468.567,-586.276 458.647,-563.096 449.217,-541.06"/>
<ellipse fill="none" stroke="#43d990" cx="480.223" cy="-613.512" rx="4.00002" ry="4.00002"/>
<polygon fill="#43d990" stroke="#43d990" points="449.141,-540.883 449.344,-529.919 447.174,-536.286 445.207,-531.689 445.207,-531.689 445.207,-531.689 447.174,-536.286 441.069,-533.46 449.141,-540.883 449.141,-540.883"/>
</g>
<!-- User&#45;&gt;Upload -->
<g id="edge13" class="edge"><title>User&#45;&gt;Upload</title>
<path fill="none" stroke="#d46e5d" d="M476.693,-609.198C464.735,-594.466 451.602,-580.847 437.212,-569 391.163,-531.092 350.028,-574.532 308.212,-532 216.906,-439.133 322.035,-343.302 232.212,-249 214.181,-230.07 194.239,-249.933 176.212,-231 169.669,-224.129 164.32,-216.171 159.951,-207.641"/>
<ellipse fill="none" stroke="#d46e5d" cx="479.263" cy="-612.442" rx="4.00002" ry="4.00002"/>
<polygon fill="#d46e5d" stroke="#d46e5d" points="159.95,-207.639 159.826,-196.674 157.846,-203.103 155.743,-198.567 155.743,-198.567 155.743,-198.567 157.846,-203.103 151.661,-200.46 159.95,-207.639 159.95,-207.639"/>
</g>
</g>
</svg>
