<?xml version="1.0" encoding="UTF-8" standalone="no"?>
<!DOCTYPE svg PUBLIC "-//W3C//DTD SVG 1.1//EN"
 "http://www.w3.org/Graphics/SVG/1.1/DTD/svg11.dtd">
<!-- Generated by graphviz version 2.38.0 (20140413.2041)
 -->
<!-- Title: models_diagram Pages: 1 -->
<svg width="710pt" height="240pt"
 viewBox="0.00 0.00 709.74 240.00" xmlns="http://www.w3.org/2000/svg" xmlns:xlink="http://www.w3.org/1999/xlink">
<g id="graph0" class="graph" transform="scale(1 1) rotate(0) translate(4 236)">
<title>models_diagram</title>
<polygon fill="white" stroke="none" points="-4,4 -4,-236 705.736,-236 705.736,4 -4,4"/>
<!-- _diagram_info -->
<g id="node1" class="node"><title>_diagram_info</title>
<text text-anchor="start" x="8" y="-217.6" font-family="Times,serif" font-size="13.00">Models diagram</text>
<text text-anchor="start" x="8" y="-204.6" font-family="Times,serif" font-size="13.00">Date: Nov 15 2014 &#45; 13:47</text>
<text text-anchor="start" x="8" y="-191.6" font-family="Times,serif" font-size="13.00">Migration version: 20141112171329</text>
<text text-anchor="start" x="8" y="-178.6" font-family="Times,serif" font-size="13.00">Generated by RailRoady 1.2.0</text>
<text text-anchor="start" x="8" y="-165.6" font-family="Times,serif" font-size="13.00">http://railroady.prestonlee.com</text>
</g>
<!-- Bid -->
<g id="node2" class="node"><title>Bid</title>
<ellipse fill="none" stroke="black" cx="257.212" cy="-18" rx="27" ry="18"/>
<text text-anchor="middle" x="257.212" y="-13.8" font-family="Times,serif" font-size="14.00">Bid</text>
</g>
<!-- Comment -->
<g id="node3" class="node"><title>Comment</title>
<ellipse fill="none" stroke="black" cx="430.212" cy="-18" rx="44.9768" ry="18"/>
<text text-anchor="middle" x="430.212" y="-13.8" font-family="Times,serif" font-size="14.00">Comment</text>
</g>
<!-- Comment&#45;&gt;Comment -->
<g id="edge1" class="edge"><title>Comment&#45;&gt;Comment</title>
<path fill="none" stroke="#07c714" d="M478.831,-25.3799C487.306,-24.3936 493.2,-21.9337 493.2,-18 493.2,-14.424 488.329,-12.0658 481.076,-10.9256"/>
<ellipse fill="none" stroke="#07c714" cx="474.794" cy="-25.6249" rx="4" ry="4"/>
<polygon fill="#07c714" stroke="#07c714" points="480.772,-10.9022 471.148,-5.64603 475.787,-10.5175 470.802,-10.1327 470.802,-10.1327 470.802,-10.1327 475.787,-10.5175 470.455,-14.6193 480.772,-10.9022 480.772,-10.9022"/>
<text text-anchor="middle" x="516.135" y="-13.8" font-family="Times,serif" font-size="14.00">children</text>
</g>
<!-- Contact -->
<g id="node4" class="node"><title>Contact</title>
<polygon fill="none" stroke="black" points="598.758,-213.5 539.665,-213.5 539.665,-177.5 598.758,-177.5 598.758,-213.5"/>
<text text-anchor="middle" x="569.212" y="-191.3" font-family="Times,serif" font-size="14.00">Contact</text>
</g>
<!-- Contractor -->
<g id="node5" class="node"><title>Contractor</title>
<ellipse fill="none" stroke="black" cx="272.212" cy="-195.5" rx="47.8496" ry="18"/>
<text text-anchor="middle" x="272.212" y="-191.3" font-family="Times,serif" font-size="14.00">Contractor</text>
</g>
<!-- Contractor&#45;&gt;Bid -->
<g id="edge5" class="edge"><title>Contractor&#45;&gt;Bid</title>
<path fill="none" stroke="#8319e1" d="M269.144,-169.1C267.533,-155.201 265.608,-137.668 264.212,-122 261.922,-96.3078 259.995,-66.9511 258.746,-46.1695"/>
<ellipse fill="none" stroke="#8319e1" cx="269.633" cy="-173.262" rx="4.00001" ry="4.00001"/>
<polygon fill="#8319e1" stroke="#8319e1" points="258.743,-46.1313 262.648,-35.8842 258.45,-41.1399 258.156,-36.1485 258.156,-36.1485 258.156,-36.1485 258.45,-41.1399 253.664,-36.4129 258.743,-46.1313 258.743,-46.1313"/>
</g>
<!-- Contractor&#45;&gt;Comment -->
<g id="edge3" class="edge"><title>Contractor&#45;&gt;Comment</title>
<path fill="none" stroke="#5dc049" d="M323.358,-185.567C351.645,-178.131 385.384,-164.757 407.212,-141 430.771,-115.359 433.755,-73.4936 432.75,-46.0932"/>
<ellipse fill="none" stroke="#5dc049" cx="319.42" cy="-186.545" rx="4.00001" ry="4.00001"/>
<polygon fill="#5dc049" stroke="#5dc049" points="432.745,-46.0019 436.67,-35.7628 432.461,-41.0099 432.178,-36.018 432.178,-36.018 432.178,-36.018 432.461,-41.0099 427.685,-36.2732 432.745,-46.0019 432.745,-46.0019"/>
<text text-anchor="middle" x="479.974" y="-99.8" font-family="Times,serif" font-size="14.00">comment_threads</text>
</g>
<!-- Contractor&#45;&gt;Comment -->
<g id="edge4" class="edge"><title>Contractor&#45;&gt;Comment</title>
<path fill="none" stroke="#acab2c" d="M298.53,-173.658C327.041,-150.15 372.671,-109.727 404.212,-68 409.496,-61.0089 414.309,-52.7965 418.318,-45.1144"/>
<ellipse fill="none" stroke="#acab2c" cx="295.116" cy="-176.447" rx="4.00002" ry="4.00002"/>
<polygon fill="#acab2c" stroke="#acab2c" points="418.335,-45.0794 426.816,-38.1279 420.561,-40.6021 422.786,-36.1248 422.786,-36.1248 422.786,-36.1248 420.561,-40.6021 418.757,-34.1217 418.335,-45.0794 418.335,-45.0794"/>
</g>
<!-- Example -->
<g id="node6" class="node"><title>Example</title>
<ellipse fill="none" stroke="black" cx="130.212" cy="-104" rx="41.5766" ry="18"/>
<text text-anchor="middle" x="130.212" y="-99.8" font-family="Times,serif" font-size="14.00">Example</text>
</g>
<!-- Contractor&#45;&gt;Example -->
<g id="edge7" class="edge"><title>Contractor&#45;&gt;Example</title>
<path fill="none" stroke="#42979d" d="M241.896,-175.393C218.201,-160.458 185.382,-139.773 161.454,-124.691"/>
<ellipse fill="none" stroke="#42979d" cx="245.379" cy="-177.588" rx="4.00002" ry="4.00002"/>
<polygon fill="#42979d" stroke="#42979d" points="161.216,-124.541 155.156,-115.402 156.986,-121.875 152.756,-119.209 152.756,-119.209 152.756,-119.209 156.986,-121.875 150.357,-123.016 161.216,-124.541 161.216,-124.541"/>
</g>
<!-- Job -->
<g id="node7" class="node"><title>Job</title>
<ellipse fill="none" stroke="black" cx="300.212" cy="-104" rx="27" ry="18"/>
<text text-anchor="middle" x="300.212" y="-99.8" font-family="Times,serif" font-size="14.00">Job</text>
</g>
<!-- Contractor&#45;&gt;Job -->
<g id="edge6" class="edge"><title>Contractor&#45;&gt;Job</title>
<path fill="none" stroke="#6c6d71" d="M280.637,-167.57C284.191,-156.209 288.319,-143.015 291.865,-131.681"/>
<polygon fill="#6c6d71" stroke="#6c6d71" points="280.596,-167.7 273.316,-175.9 279.103,-172.472 277.61,-177.243 277.61,-177.243 277.61,-177.243 279.103,-172.472 281.905,-178.587 280.596,-167.7 280.596,-167.7"/>
<polygon fill="#6c6d71" stroke="#6c6d71" points="291.939,-131.444 299.219,-123.244 293.432,-126.672 294.925,-121.9 294.925,-121.9 294.925,-121.9 293.432,-126.672 290.63,-120.556 291.939,-131.444 291.939,-131.444"/>
</g>
<!-- Upload -->
<g id="node8" class="node"><title>Upload</title>
<ellipse fill="none" stroke="black" cx="59.2117" cy="-18" rx="36.2818" ry="18"/>
<text text-anchor="middle" x="59.2117" y="-13.8" font-family="Times,serif" font-size="14.00">Upload</text>
</g>
<!-- Contractor&#45;&gt;Upload -->
<g id="edge2" class="edge"><title>Contractor&#45;&gt;Upload</title>
<path fill="none" stroke="#ea1c28" d="M244.202,-174.798C235.24,-169.12 225.077,-163.303 215.212,-159 157.795,-133.954 127.37,-162.059 79.2117,-122 54.3367,-101.308 50.4683,-86.2395 53.2117,-54 53.4312,-51.42 53.7402,-48.7445 54.1034,-46.0743"/>
<ellipse fill="none" stroke="#ea1c28" cx="247.752" cy="-177.109" rx="4.00002" ry="4.00002"/>
<polygon fill="#ea1c28" stroke="#ea1c28" points="54.1323,-45.8918 60.1427,-36.7198 54.9152,-40.9534 55.6982,-36.0151 55.6982,-36.0151 55.6982,-36.0151 54.9152,-40.9534 51.2537,-35.3104 54.1323,-45.8918 54.1323,-45.8918"/>
</g>
<!-- Example&#45;&gt;Comment -->
<g id="edge8" class="edge"><title>Example&#45;&gt;Comment</title>
<path fill="none" stroke="#bd526f" d="M152.358,-81.7045C164.048,-71.6907 179.163,-60.5394 194.687,-54 211.209,-47.0403 313.484,-33.4419 377.711,-25.3974"/>
<ellipse fill="none" stroke="#bd526f" cx="149.234" cy="-84.4657" rx="4.00002" ry="4.00002"/>
<polygon fill="#bd526f" stroke="#bd526f" points="377.75,-25.3926 388.23,-28.6213 382.711,-24.7742 387.673,-24.1559 387.673,-24.1559 387.673,-24.1559 382.711,-24.7742 387.117,-19.6904 377.75,-25.3926 377.75,-25.3926"/>
<text text-anchor="middle" x="243.974" y="-56.8" font-family="Times,serif" font-size="14.00">comment_threads</text>
</g>
<!-- Example&#45;&gt;Upload -->
<g id="edge9" class="edge"><title>Example&#45;&gt;Upload</title>
<path fill="none" stroke="#6df9e8" d="M88.524,-90.5122C77.8809,-85.2805 67.6419,-78.0082 61.2117,-68 57.1452,-61.6708 55.6476,-53.8733 55.43,-46.375"/>
<ellipse fill="none" stroke="#6df9e8" cx="92.2633" cy="-92.184" rx="4.00002" ry="4.00002"/>
<polygon fill="#6df9e8" stroke="#6df9e8" points="55.4389,-46.1504 60.3366,-36.339 55.6396,-41.1544 55.8402,-36.1584 55.8402,-36.1584 55.8402,-36.1584 55.6396,-41.1544 51.3439,-35.9778 55.4389,-46.1504 55.4389,-46.1504"/>
</g>
<!-- Job&#45;&gt;Bid -->
<g id="edge12" class="edge"><title>Job&#45;&gt;Bid</title>
<path fill="none" stroke="#c5ec4e" d="M288.115,-79.369C282.525,-68.4493 275.879,-55.4665 270.185,-44.3436"/>
<ellipse fill="none" stroke="#c5ec4e" cx="290.098" cy="-83.2434" rx="4.00002" ry="4.00002"/>
<polygon fill="#c5ec4e" stroke="#c5ec4e" points="270.034,-44.0478 269.483,-33.0958 267.755,-39.5971 265.477,-35.1463 265.477,-35.1463 265.477,-35.1463 267.755,-39.5971 261.471,-37.1969 270.034,-44.0478 270.034,-44.0478"/>
</g>
<!-- Job&#45;&gt;Comment -->
<g id="edge10" class="edge"><title>Job&#45;&gt;Comment</title>
<path fill="none" stroke="#d94ef2" d="M297.086,-77.6454C297.375,-69.2951 299.272,-60.4955 304.687,-54 321.75,-33.5351 349.68,-24.4923 374.867,-20.6935"/>
<ellipse fill="none" stroke="#d94ef2" cx="297.175" cy="-81.7449" rx="4" ry="4"/>
<polygon fill="#d94ef2" stroke="#d94ef2" points="375.165,-20.6561 385.649,-23.8705 380.125,-20.031 385.086,-19.4058 385.086,-19.4058 385.086,-19.4058 380.125,-20.031 384.524,-14.9411 375.165,-20.6561 375.165,-20.6561"/>
<text text-anchor="middle" x="353.974" y="-56.8" font-family="Times,serif" font-size="14.00">comment_threads</text>
</g>
<!-- Job&#45;&gt;Upload -->
<g id="edge11" class="edge"><title>Job&#45;&gt;Upload</title>
<path fill="none" stroke="#277782" d="M266.842,-95.7843C251.981,-92.6476 234.247,-89.0098 218.212,-86 170.816,-77.1037 154.397,-89.46 111.212,-68 99.0618,-61.9624 87.8019,-52.1395 78.8892,-42.8679"/>
<ellipse fill="none" stroke="#277782" cx="270.862" cy="-96.6376" rx="4.00001" ry="4.00001"/>
<polygon fill="#277782" stroke="#277782" points="78.7278,-42.6909 75.3106,-32.2711 75.3572,-38.9977 71.9867,-35.3045 71.9867,-35.3045 71.9867,-35.3045 75.3572,-38.9977 68.6628,-38.338 78.7278,-42.6909 78.7278,-42.6909"/>
</g>
<!-- User -->
<g id="node9" class="node"><title>User</title>
<ellipse fill="none" stroke="black" cx="494.212" cy="-195.5" rx="27" ry="18"/>
<text text-anchor="middle" x="494.212" y="-191.3" font-family="Times,serif" font-size="14.00">User</text>
</g>
<!-- User&#45;&gt;Comment -->
<g id="edge14" class="edge"><title>User&#45;&gt;Comment</title>
<path fill="none" stroke="#c2f08e" d="M512.448,-173.305C517.759,-168.078 523.855,-162.874 530.212,-159 552.174,-145.615 570.116,-161.824 585.212,-141 607.906,-109.694 609.355,-84.2029 585.212,-54 572.575,-38.1911 523.505,-29.0064 483.917,-24.0458"/>
<ellipse fill="none" stroke="#c2f08e" cx="509.381" cy="-176.492" rx="4.00002" ry="4.00002"/>
<polygon fill="#c2f08e" stroke="#c2f08e" points="483.755,-24.0266 474.357,-18.3763 478.79,-23.4357 473.825,-22.8448 473.825,-22.8448 473.825,-22.8448 478.79,-23.4357 473.293,-27.3133 483.755,-24.0266 483.755,-24.0266"/>
<text text-anchor="middle" x="651.974" y="-99.8" font-family="Times,serif" font-size="14.00">comment_threads</text>
</g>
<!-- User&#45;&gt;Comment -->
<g id="edge15" class="edge"><title>User&#45;&gt;Comment</title>
<path fill="none" stroke="#1aa16e" d="M515.944,-174.64C537.382,-152.545 564.607,-116.007 547.212,-86 531.91,-59.6038 501.857,-42.7179 476.043,-32.5009"/>
<ellipse fill="none" stroke="#1aa16e" cx="512.927" cy="-177.648" rx="4.00002" ry="4.00002"/>
<polygon fill="#1aa16e" stroke="#1aa16e" points="475.767,-32.398 467.968,-24.689 471.082,-30.6519 466.396,-28.9057 466.396,-28.9057 466.396,-28.9057 471.082,-30.6519 464.825,-33.1224 475.767,-32.398 475.767,-32.398"/>
</g>
<!-- User&#45;&gt;Job -->
<g id="edge16" class="edge"><title>User&#45;&gt;Job</title>
<path fill="none" stroke="#c89167" d="M465.279,-181.152C429.258,-164.534 367.986,-136.267 331.084,-119.243"/>
<ellipse fill="none" stroke="#c89167" cx="469.077" cy="-182.904" rx="4.00002" ry="4.00002"/>
<polygon fill="#c89167" stroke="#c89167" points="330.891,-119.154 323.696,-110.878 326.351,-117.059 321.811,-114.964 321.811,-114.964 321.811,-114.964 326.351,-117.059 319.925,-119.051 330.891,-119.154 330.891,-119.154"/>
</g>
<!-- User&#45;&gt;Upload -->
<g id="edge13" class="edge"><title>User&#45;&gt;Upload</title>
<path fill="none" stroke="#679acf" d="M461.843,-185.45C416.995,-172.65 333.631,-147.916 264.212,-122 226.542,-107.937 219.623,-97.8909 181.212,-86 140.994,-73.5498 122.627,-92.2487 88.2117,-68 80.2268,-62.374 74.0855,-53.7909 69.5541,-45.3716"/>
<ellipse fill="none" stroke="#679acf" cx="465.909" cy="-186.605" rx="4.00001" ry="4.00001"/>
<polygon fill="#679acf" stroke="#679acf" points="69.4331,-45.1191 69.1675,-34.1564 67.2714,-40.6105 65.1097,-36.1019 65.1097,-36.1019 65.1097,-36.1019 67.2714,-40.6105 61.052,-38.0474 69.4331,-45.1191 69.4331,-45.1191"/>
</g>
</g>
</svg>
